PathFileType	4	(x/y/z)	S08_M20_T13
DataRate	CameraRate	NumFrames	NumMarkers	Units	OrigDataRate	OrigDataStartFrame	OrigNumFrames
240	240	5	51	mm	240	328	524
Frame#	Time	Sternum			R.Acromium			L.Acromium			Top.Head			R.ASIS			L.ASIS			R.PSIS			L.PSIS			R.Great.Tro			L.Great.Tro			R.Iliac.Crest			L.Iliac.Crest			V.Sacral			R.Thigh.Upper.Post			R.Thigh.Lower.Ant			R.Thigh.Lower.Post			R.Thigh.Upper.Ant			R.Knee.Lat			R.Knee.Med			R.Shank.Upper.Post			R.Shank.Lower.Ant			R.Shank.Lower.Post			R.Shank.Upper.Ant			R.Ankle.Lat			R.Ankle.Med			R.Heel.Upper			R.Heel.Med			R.Heel.Lat			R.Toe.Lat			R.Toe.Med			R.Toe.Tip			L.Thigh.Upper.Post			L.Thigh.Lower.Ant			L.Thigh.Lower.Post			L.Thigh.Upper.Ant			L.Knee.Lat			L.Knee.Med			L.Shank.Upper.Post			L.Shank.Lower.Ant			L.Shank.Lower.Post			L.Shank.Upper.Ant			L.Ankle.Lat			L.Ankle.Med			L.Heel.Upper			L.Heel.Med			L.Heel.Lat			L.Toe.Lat			L.Toe.Med			L.Toe.Tip			Cervical.Spine			Back			
		X1	Y1	Z1	X2	Y2	Z2	X3	Y3	Z3	X4	Y4	Z4	X5	Y5	Z5	X6	Y6	Z6	X7	Y7	Z7	X8	Y8	Z8	X9	Y9	Z9	X10	Y10	Z10	X11	Y11	Z11	X12	Y12	Z12	X13	Y13	Z13	X14	Y14	Z14	X15	Y15	Z15	X16	Y16	Z16	X17	Y17	Z17	X18	Y18	Z18	X19	Y19	Z19	X20	Y20	Z20	X21	Y21	Z21	X22	Y22	Z22	X23	Y23	Z23	X24	Y24	Z24	X25	Y25	Z25	X26	Y26	Z26	X27	Y27	Z27	X28	Y28	Z28	X29	Y29	Z29	X30	Y30	Z30	X31	Y31	Z31	X32	Y32	Z32	X33	Y33	Z33	X34	Y34	Z34	X35	Y35	Z35	X36	Y36	Z36	X37	Y37	Z37	X38	Y38	Z38	X39	Y39	Z39	X40	Y40	Z40	X41	Y41	Z41	X42	Y42	Z42	X43	Y43	Z43	X44	Y44	Z44	X45	Y45	Z45	X46	Y46	Z46	X47	Y47	Z47	X48	Y48	Z48	X49	Y49	Z49	X50	Y50	Z50	X51	Y51	Z51	

328	1.3625	203.51	1183.9	319.67	92.556	1415.2	496.63	58.07	1446.4	164.21	97.392	1741	345.46	180.24	968.85	449.6	208.3	975.3	217.69	-8.925	998.98	347.88	5.8177	1002	254.55	80.598	869.35	508.36	137.99	870.97	137.37	83.198	1039.8	482.28	110.15	1052.7	170.82	-20.058	960.65	298.41	-17.02	696.6	489.68	21.201	574.14	463.69	-41.194	609.97	468.45	55.261	661.47	485.79	-53.43	498.96	453.31	-63.217	507.23	325.33	-210.6	379.93	456.19	-194.61	293.49	434.86	-253.94	316.96	446.99	-150.44	357.35	446.64	-348.48	171.85	410.02	-312.54	173.06	331.9	-405.83	170.26	359.02	-409.96	146.32	327.45	-416.95	143.51	389.61	NaN	NaN	NaN	-261.42	49.136	306	-201.66	42.852	350.08	202.68	665.94	157.74	316.67	621.57	190.33	254.26	593.62	179.96	270.18	693.38	163.12	310.23	511.97	199.96	302.01	510.63	324.63	309.9	323.08	195.42	398.72	259.87	222.11	327.6	252.53	211.16	374.12	330.95	206.24	398.58	95.29	226.1	419.52	108.18	314.52	355.03	65.799	279.19	377.27	35.526	310.84	367.45	38.94	247.7	537.64	68.007	213.49	555.81	80.831	325.65	609.76	118.05	276.56	10.791	1476.1	332.22	-33.202	1189.8	339.95
329	1.3667	210.13	1184.4	319.17	98.783	1415.6	495.93	64.158	1446.6	163.49	102.96	1741.4	344.89	187.12	968.81	449.07	214.97	976.02	217.25	-2.0874	999.43	347.69	12.511	1002.9	254.33	87.549	868.96	507.76	144.79	872.15	136.72	90.231	1039.8	482.03	116.84	1053.5	170.55	-13.363	961.31	298.08	-9.8796	696.13	489.09	28.583	573.7	463.36	-33.868	609.43	467.91	62.466	661.14	485.28	-45.92	498.55	453.22	-55.604	506.57	325.25	-204.04	381.05	456.35	-188.98	294.36	435.35	-248.06	318.51	447.36	-144.14	357.79	446.93	-344.01	174.33	411.16	-308.14	174.93	332.89	-400.98	174.56	360.21	-405.9	150.97	328.46	-412.84	148.04	390.62	NaN	NaN	NaN	-260.43	49.904	306.3	-201.27	42.58	350.09	209.19	666.88	157.15	323.02	622.3	190.1	260.61	594.45	179.49	276.73	694.21	162.81	316.3	512.57	199.67	307.5	511.21	324.22	314.27	323.65	194.98	402.33	259.54	222.1	331.2	252.91	210.8	378.52	330.88	206.14	400.06	95.025	226.05	421.13	107.67	314.45	356.05	66.491	279.25	377.68	35.799	310.8	367.94	39.398	247.65	538.71	65.742	213.58	557.05	78.298	325.71	611.62	114.71	276.68	16.747	1476.3	331.5	-26.525	1189.9	339.59
330	1.3708	216.71	1184.9	318.69	105	1416	495.25	70.245	1446.9	162.78	108.53	1741.8	344.32	193.97	968.83	448.51	221.59	976.81	216.79	4.7062	999.94	347.54	19.145	1003.8	254.15	94.511	868.6	507.16	151.49	873.4	136.07	97.247	1039.9	481.78	123.47	1054.4	170.3	-6.7142	962.01	297.77	-2.6261	695.6	488.49	36.159	573.24	463.01	-26.371	608.81	467.36	69.803	660.81	484.75	-38.159	498.07	453.12	-47.76	505.84	325.17	-197.22	382.11	456.52	-183.1	295.19	435.83	-241.91	320.04	447.74	-137.59	358.18	447.21	-339.29	176.9	412.32	-303.54	176.86	333.87	-395.85	178.99	361.43	-401.58	155.77	329.53	-408.46	152.74	391.69	NaN	NaN	NaN	-259.35	50.778	306.61	-200.83	42.285	350.11	215.62	667.84	156.51	329.3	623.06	189.81	266.88	595.32	178.98	283.2	695.06	162.43	322.3	513.2	199.34	313	511.85	323.78	318.54	324.25	194.51	405.84	259.25	222.04	334.71	253.33	210.41	382.81	330.83	205.98	401.46	94.798	226	422.65	107.22	314.35	357.01	67.154	279.28	378.06	36.089	310.75	368.41	39.846	247.59	539.71	63.604	213.65	558.18	75.939	325.75	613.35	111.55	276.76	22.702	1476.6	330.79	-19.875	1190.1	339.26
331	1.375	223.27	1185.6	318.22	111.21	1416.5	494.59	76.331	1447.2	162.1	114.11	1742.4	343.74	200.79	968.91	447.92	228.15	977.67	216.3	11.449	1000.5	347.42	25.713	1004.7	254.01	101.47	868.26	506.56	158.09	874.7	135.42	104.24	1040	481.54	130.02	1055.3	170.08	-0.11681	962.76	297.5	4.7357	695	487.89	43.927	572.75	462.67	-18.705	608.12	466.83	77.269	660.46	484.2	-30.145	497.51	453.03	-39.682	505.02	325.1	-190.12	383.14	456.7	-176.99	296	436.3	-235.51	321.54	448.14	-130.79	358.51	447.49	-334.33	179.54	413.5	-298.74	178.85	334.84	-390.44	183.53	362.69	-396.98	160.71	330.64	-403.78	157.58	392.8	NaN	NaN	NaN	-258.17	51.769	306.94	-200.32	41.966	350.13	221.97	668.81	155.83	335.51	623.84	189.45	273.08	596.2	178.41	289.59	695.94	161.99	328.2	513.83	198.97	318.48	512.52	323.3	322.7	324.86	194.01	409.23	258.99	221.93	338.1	253.77	210	386.98	330.8	205.78	402.79	94.601	225.93	424.08	106.83	314.21	357.92	67.783	279.28	378.4	36.391	310.69	368.86	40.281	247.52	540.62	61.589	213.68	559.23	73.751	325.77	614.96	108.55	276.79	28.655	1476.9	330.1	-13.257	1190.3	338.94
332	1.3792	229.79	1186.3	317.77	117.4	1417.1	493.95	82.416	1447.5	161.43	119.68	1742.9	343.15	207.56	969.05	447.31	234.65	978.59	215.78	18.135	1001.1	347.33	32.211	1005.7	253.89	108.43	867.94	505.95	164.57	876.05	134.78	111.19	1040.1	481.31	136.51	1056.2	169.87	6.4265	963.55	297.26	12.201	694.34	487.29	51.884	572.23	462.31	-10.872	607.36	466.31	84.86	660.12	483.65	-21.881	496.87	452.94	-31.369	504.13	325.04	-182.76	384.11	456.91	-170.63	296.78	436.76	-228.85	323.02	448.55	-123.73	358.79	447.75	-329.12	182.27	414.7	-293.74	180.9	335.79	-384.73	188.18	363.97	-392.09	165.78	331.79	-398.82	162.58	393.95	NaN	NaN	NaN	-256.87	52.885	307.29	-199.74	41.625	350.17	228.22	669.8	155.1	341.62	624.64	189.03	279.19	597.1	177.79	295.88	696.82	161.49	334	514.46	198.56	323.95	513.22	322.8	326.75	325.49	193.48	412.52	258.75	221.77	341.39	254.24	209.56	391.04	330.78	205.52	404.03	94.431	225.86	425.43	106.51	314.05	358.77	68.374	279.27	378.72	36.7	310.63	369.29	40.699	247.44	541.47	59.693	213.69	560.18	71.726	325.76	616.44	105.73	276.79	34.603	1477.3	329.42	-6.6796	1190.6	338.65
